{
  "accessors": [
    {
      "bufferView": 2,
      "componentType": 5126,
      "count": 4887,
      "max": [
        14.032608032226563,
        10.150310516357422,
        15.239029884338379
      ],
      "min": [
        -1.1633834838867188,
        3.092820882797241,
        -4.49381685256958
      ],
      "type": "VEC3"
    },
    {
      "bufferView": 2,
      "byteOffset": 58644,
      "componentType": 5126,
      "count": 4887,
      "max": [
        0.9998853206634521,
        0.9791823029518127,
        0.9995846748352051
      ],
      "min": [
        -0.9996953010559082,
        -0.9998534321784973,
        -0.999932050704956
      ],
      "type": "VEC3"
    },
    {
      "bufferView": 3,
      "componentType": 5126,
      "count": 4887,
      "max": [
        0.9967637062072754,
        0.9991890788078308,
        0.998706579208374,
        1.0
      ],
      "min": [
        -0.9999010562896729,
        -0.9988449811935425,
        -0.9996675848960876,
        1.0
      ],
      "type": "VEC4"
    },
    {
      "bufferView": 1,
      "componentType": 5126,
      "count": 4887,
      "max": [
        0.9989385008811951,
        1.0004382133483887
      ],
      "min": [
        0.001988205360248685,
        1.0602604561427142e-05
      ],
      "type": "VEC2"
    },
    {
      "bufferView": 1,
      "byteOffset": 39096,
      "componentType": 5126,
      "count": 4887,
      "max": [
        0.9989385008811951,
        1.0004382133483887
      ],
      "min": [
        0.001988205360248685,
        1.0602604561427142e-05
      ],
      "type": "VEC2"
    },
    {
      "bufferView": 1,
      "byteOffset": 78192,
      "componentType": 5126,
      "count": 4887,
      "max": [
        0.9989385008811951,
        1.0004382133483887
      ],
      "min": [
        0.001988205360248685,
        1.0602604561427142e-05
      ],
      "type": "VEC2"
    },
    {
      "bufferView": 1,
      "byteOffset": 117288,
      "componentType": 5126,
      "count": 4887,
      "max": [
        0.9989385008811951,
        1.0004382133483887
      ],
      "min": [
        0.001988205360248685,
        1.0602604561427142e-05
      ],
      "type": "VEC2"
    },
    {
      "bufferView": 0,
      "componentType": 5125,
      "count": 21471,
      "type": "SCALAR"
    },
    {
      "bufferView": 2,
      "byteOffset": 117288,
      "componentType": 5126,
      "count": 26016,
      "max": [
        17.848676681518555,
        35.360595703125,
        48.043880462646484
      ],
      "min": [
        -28.222143173217773,
        -10.808793067932129,
        -29.17591667175293
      ],
      "type": "VEC3"
    },
    {
      "bufferView": 2,
      "byteOffset": 429480,
      "componentType": 5126,
      "count": 26016,
      "max": [
        0.9999778866767883,
        0.9998828172683716,
        1.0
      ],
      "min": [
        -0.9994907379150391,
        -0.9998987317085266,
        -0.9995934367179871
      ],
      "type": "VEC3"
    },
    {
      "bufferView": 1,
      "byteOffset": 156384,
      "componentType": 5126,
      "count": 26016,
      "max": [
        1.0,
        1.0
      ],
      "min": [
        0.0,
        0.0
      ],
      "type": "VEC2"
    },
    {
      "bufferView": 1,
      "byteOffset": 364512,
      "componentType": 5126,
      "count": 26016,
      "max": [
        1.0,
        1.0
      ],
      "min": [
        0.0,
        0.0
      ],
      "type": "VEC2"
    },
    {
      "bufferView": 1,
      "byteOffset": 572640,
      "componentType": 5126,
      "count": 26016,
      "max": [
        1.0,
        1.0
      ],
      "min": [
        0.0,
        0.0
      ],
      "type": "VEC2"
    },
    {
      "bufferView": 1,
      "byteOffset": 780768,
      "componentType": 5126,
      "count": 26016,
      "max": [
        1.0,
        1.0
      ],
      "min": [
        0.0,
        0.0
      ],
      "type": "VEC2"
    },
    {
      "bufferView": 0,
      "byteOffset": 85884,
      "componentType": 5125,
      "count": 26016,
      "type": "SCALAR"
    }
  ],
  "asset": {
    "extras": {
      "author": "shalivan (https://sketchfab.com/shalivan)",
      "license": "CC-BY-4.0 (http://creativecommons.org/licenses/by/4.0/)",
      "source": "https://sketchfab.com/3d-models/cactus-1-564bfb6467344377a891ec45e88cf4c2",
      "title": "Cactus 1"
    },
    "generator": "Sketchfab-12.68.0",
    "version": "2.0"
  },
  "bufferViews": [
    {
      "buffer": 0,
      "byteLength": 189948,
      "name": "floatBufferViews",
      "target": 34963
    },
    {
      "buffer": 0,
      "byteLength": 988896,
      "byteOffset": 189948,
      "byteStride": 8,
      "name": "floatBufferViews",
      "target": 34962
    },
    {
      "buffer": 0,
      "byteLength": 741672,
      "byteOffset": 1178844,
      "byteStride": 12,
      "name": "floatBufferViews",
      "target": 34962
    },
    {
      "buffer": 0,
      "byteLength": 78192,
      "byteOffset": 1920516,
      "byteStride": 16,
      "name": "floatBufferViews",
      "target": 34962
    }
  ],
  "buffers": [
    {
      "byteLength": 1998708,
      "uri": "scene.bin"
    }
  ],
  "images": [
    {
      "uri": "textures/kaktus_tex_baseColor.jpeg"
    },
    {
      "uri": "textures/kaktus_tex_normal.png"
    }
  ],
  "materials": [
    {
      "doubleSided": true,
      "name": "kaktus_tex",
      "normalTexture": {
        "index": 1
      },
      "pbrMetallicRoughness": {
        "baseColorTexture": {
          "index": 0
        },
        "metallicFactor": 0.0,
        "roughnessFactor": 0.6
      }
    },
    {
      "doubleSided": true,
      "name": "15_-_Default",
      "pbrMetallicRoughness": {
        "baseColorFactor": [
          0.392157,
          0.266667,
          0.121569,
          1.0
        ],
        "metallicFactor": 0.0,
        "roughnessFactor": 0.6
      }
    }
  ],
  "meshes": [
    {
      "name": "Object_0",
      "primitives": [
        {
          "attributes": {
            "NORMAL": 1,
            "POSITION": 0,
            "TANGENT": 2,
            "TEXCOORD_0": 3,
            "TEXCOORD_1": 4,
            "TEXCOORD_2": 5,
            "TEXCOORD_3": 6
          },
          "indices": 7,
          "material": 0,
          "mode": 4
        }
      ]
    },
    {
      "name": "Object_1",
      "primitives": [
        {
          "attributes": {
            "NORMAL": 9,
            "POSITION": 8,
            "TEXCOORD_0": 10,
            "TEXCOORD_1": 11,
            "TEXCOORD_2": 12,
            "TEXCOORD_3": 13
          },
          "indices": 14,
          "material": 1,
          "mode": 4
        }
      ]
    }
  ],
  "nodes": [
    {
      "children": [
        1
      ],
      "matrix": [
        1.0,
        0.0,
        0.0,
        0.0,
        0.0,
        2.220446049250313e-16,
        -1.0,
        0.0,
        0.0,
        1.0,
        2.220446049250313e-16,
        0.0,
        0.0,
        0.0,
        0.0,
        1.0
      ],
      "name": "Sketchfab_model"
    },
    {
      "children": [
        2
      ],
      "matrix": [
        1.0,
        0.0,
        0.0,
        0.0,
        0.0,
        0.0,
        1.0,
        0.0,
        0.0,
        -1.0,
        0.0,
        0.0,
        0.0,
        0.0,
        0.0,
        1.0
      ],
      "name": "43c2e53d68b5404191e1ed07cdfeea67.fbx"
    },
    {
      "children": [
        3,
        5
      ],
      "name": "RootNode"
    },
    {
      "children": [
        4
      ],
      "matrix": [
        0.9897243402513138,
        0.12981668143474506,
        -0.059944637252814945,
        0.0,
        0.1229773471379793,
        -0.9866936842744343,
        -0.10635857042969156,
        0.0,
        -0.07295410729039674,
        0.09789382764917254,
        -0.9925192076369953,
        0.0,
        -7.142000198364258,
        6.716000080108643,
        7.053999900817871,
        1.0
      ],
      "name": "lo_bake"
    },
    {
      "mesh": 0,
      "name": "Object_4"
    },
    {
      "children": [
        6
      ],
      "matrix": [
        0.17021807309190443,
        0.14898317237067382,
        0.05542049062966567,
        0.0,
        0.15890516153041614,
        -0.1574059287309197,
        -0.06491634676822676,
        0.0,
        -0.004070142982206497,
        0.08525839547297687,
        -0.216693396191796,
        0.0,
        -0.7134705185890198,
        3.3903965950012207,
        3.19883394241333,
        1.0
      ],
      "name": "kolce_1"
    },
    {
      "mesh": 1,
      "name": "Object_6"
    }
  ],
  "samplers": [
    {
      "magFilter": 9729,
      "minFilter": 9987,
      "wrapS": 10497,
      "wrapT": 10497
    },
    {
      "magFilter": 9729,
      "minFilter": 9987,
      "wrapS": 33071,
      "wrapT": 33071
    }
  ],
  "scene": 0,
  "scenes": [
    {
      "name": "Sketchfab_Scene",
      "nodes": [
        0
      ]
    }
  ],
  "textures": [
    {
      "sampler": 0,
      "source": 0
    },
    {
      "sampler": 1,
      "source": 1
    }
  ]
}
